<svg id="visual" viewBox="0 0 900 600" width="900" height="600" xmlns="http://www.w3.org/2000/svg" xmlns:xlink="http://www.w3.org/1999/xlink" version="1.1"><rect x="0" y="0" width="900" height="600" fill="#ffffff"></rect><path d="M98 0L90.8 20C83.7 40 69.3 80 79.5 120C89.7 160 124.3 200 125 240C125.7 280 92.3 320 75.5 360C58.7 400 58.3 440 73.8 480C89.3 520 120.7 560 136.3 580L152 600L0 600L0 580C0 560 0 520 0 480C0 440 0 400 0 360C0 320 0 280 0 240C0 200 0 160 0 120C0 80 0 40 0 20L0 0Z" fill="#d5dae1" stroke-linecap="round" stroke-linejoin="miter"></path></svg>